<svg width="16" height="17" viewBox="0 0 16 17" fill="none" xmlns="http://www.w3.org/2000/svg">
<path d="M3.92188 9.23438C3.67578 9.23438 3.5 9.05859 3.5 8.8125V7.6875C3.5 7.47656 3.67578 7.26562 3.92188 7.26562H12.0781C12.2891 7.26562 12.5 7.47656 12.5 7.6875V8.8125C12.5 9.05859 12.2891 9.23438 12.0781 9.23438H3.92188ZM15.875 2.0625V14.4375C15.875 15.3867 15.1016 16.125 14.1875 16.125H1.8125C0.863281 16.125 0.125 15.3867 0.125 14.4375V2.0625C0.125 1.14844 0.863281 0.375 1.8125 0.375H14.1875C15.1016 0.375 15.875 1.14844 15.875 2.0625ZM14.1875 14.2266V2.27344C14.1875 2.16797 14.082 2.0625 13.9766 2.0625H2.02344C1.88281 2.0625 1.8125 2.16797 1.8125 2.27344V14.2266C1.8125 14.3672 1.88281 14.4375 2.02344 14.4375H13.9766C14.082 14.4375 14.1875 14.3672 14.1875 14.2266Z" fill="#FF7000"/>
</svg>
