<svg width="85" height="87" viewBox="0 0 85 87" fill="none" xmlns="http://www.w3.org/2000/svg">
<g filter="url(#filter0_d_1_59)">
<path d="M33.6559 27.2585C36.1197 28.2248 39.2176 26.3203 40.5751 23.0046C41.9327 19.689 41.0359 16.2177 38.5721 15.2514C36.1083 14.2851 33.0105 16.1896 31.6529 19.5053C30.2954 22.821 31.1921 26.2922 33.6559 27.2585Z" fill="url(#paint0_linear_1_59)"/>
<path d="M28.8859 47.7062C30.455 48.5928 30.9436 49.5434 31.4338 50.4971C31.9272 51.4569 32.4221 52.4197 34.0216 53.3236C38.7741 56.009 42.8275 50.1535 41.4855 45.3221C41.0473 43.7446 41.0079 42.2476 40.9709 40.8437C40.8947 37.9478 40.8288 35.4473 37.2953 33.4506C33.7636 31.4549 31.5206 32.6481 28.9218 34.0304C27.6598 34.7017 26.3138 35.4176 24.6957 35.8347C19.7455 37.1105 16.5951 43.4764 21.3476 46.1619C22.9471 47.0657 24.0465 47.0038 25.1425 46.942C26.2314 46.8807 27.3169 46.8196 28.8859 47.7062Z" fill="url(#paint1_linear_1_59)"/>
<path d="M52.764 23.2421C54.851 24.8473 54.7147 28.4253 52.4596 31.2338C50.2045 34.0424 46.6846 35.0179 44.5977 33.4127C42.5107 31.8075 42.647 28.2295 44.9021 25.421C47.1572 22.6125 50.6771 21.637 52.764 23.2421Z" fill="url(#paint2_linear_1_59)"/>
<path d="M22.495 30.2161C24.4803 30.3572 26.2455 28.3713 26.4377 25.7805C26.6299 23.1898 25.1763 20.9752 23.191 20.8341C21.2056 20.693 19.4404 22.6789 19.2483 25.2697C19.0561 27.8605 20.5097 30.0751 22.495 30.2161Z" fill="url(#paint3_linear_1_59)"/>
<path d="M55.5139 39.0652C56.6314 40.6774 55.7568 43.1666 53.5604 44.6249C51.3641 46.0831 48.6777 45.9583 47.5602 44.3461C46.4428 42.7339 47.3174 40.2448 49.5137 38.7865C51.71 37.3282 54.3964 37.453 55.5139 39.0652Z" fill="url(#paint4_linear_1_59)"/>
</g>
<defs>
<filter id="filter0_d_1_59" x="0" y="0" width="85" height="87" filterUnits="userSpaceOnUse" color-interpolation-filters="sRGB">
<feFlood flood-opacity="0" result="BackgroundImageFix"/>
<feColorMatrix in="SourceAlpha" type="matrix" values="0 0 0 0 0 0 0 0 0 0 0 0 0 0 0 0 0 0 127 0" result="hardAlpha"/>
<feOffset dx="5" dy="9"/>
<feGaussianBlur stdDeviation="12"/>
<feComposite in2="hardAlpha" operator="out"/>
<feColorMatrix type="matrix" values="0 0 0 0 1 0 0 0 0 0.619608 0 0 0 0 0.494118 0 0 0 0.08 0"/>
<feBlend mode="normal" in2="BackgroundImageFix" result="effect1_dropShadow_1_59"/>
<feBlend mode="normal" in="SourceGraphic" in2="effect1_dropShadow_1_59" result="shape"/>
</filter>
<linearGradient id="paint0_linear_1_59" x1="36.9869" y1="19.3438" x2="34.4502" y2="64.96" gradientUnits="userSpaceOnUse">
<stop offset="0.277018" stop-color="#FFCD51"/>
<stop offset="1" stop-color="#FF926A"/>
</linearGradient>
<linearGradient id="paint1_linear_1_59" x1="36.9869" y1="19.3438" x2="34.4502" y2="64.96" gradientUnits="userSpaceOnUse">
<stop offset="0.277018" stop-color="#FFCD51"/>
<stop offset="1" stop-color="#FF926A"/>
</linearGradient>
<linearGradient id="paint2_linear_1_59" x1="36.9869" y1="19.3438" x2="34.4502" y2="64.96" gradientUnits="userSpaceOnUse">
<stop offset="0.277018" stop-color="#FFCD51"/>
<stop offset="1" stop-color="#FF926A"/>
</linearGradient>
<linearGradient id="paint3_linear_1_59" x1="36.9869" y1="19.3438" x2="34.4502" y2="64.96" gradientUnits="userSpaceOnUse">
<stop offset="0.277018" stop-color="#FFCD51"/>
<stop offset="1" stop-color="#FF926A"/>
</linearGradient>
<linearGradient id="paint4_linear_1_59" x1="36.9869" y1="19.3438" x2="34.4502" y2="64.96" gradientUnits="userSpaceOnUse">
<stop offset="0.277018" stop-color="#FFCD51"/>
<stop offset="1" stop-color="#FF926A"/>
</linearGradient>
</defs>
</svg>
